<svg width="1346" height="1000" viewBox="0 0 1346 1000" fill="none" xmlns="http://www.w3.org/2000/svg">
<path d="M887.692 801.75C998.456 768.248 1061.37 650.982 1027.98 540.236C994.476 429.472 877.209 366.56 766.464 399.95C655.7 433.452 592.788 550.719 626.178 661.464C659.68 772.209 776.946 835.14 887.692 801.75ZM683.597 644.143C659.792 565.013 704.748 481.267 783.766 457.462C862.897 433.546 946.643 478.52 970.447 557.52C994.364 636.65 949.389 720.396 870.389 744.201C791.259 768.136 707.513 723.162 683.597 644.143Z" fill="#252391"/>
<path d="M847.575 664.099C851.76 677.869 851.648 691.864 848.023 704.869C851.331 704.215 854.526 703.43 857.721 702.44C913.813 685.474 945.559 626.28 928.686 570.188C911.72 514.096 852.527 482.351 796.435 499.223C740.342 516.189 708.485 575.383 725.469 631.475C725.581 631.923 725.806 632.241 725.918 632.689C734.064 624.636 744.21 618.47 756 614.845C794.902 603.148 835.897 625.197 847.575 664.099Z" fill="#252391"/>
<path d="M60.642 894.689C51.2995 880.021 42.499 864.999 34.2402 849.621C65.5935 834.467 82.1857 798.256 71.8529 763.951L121.667 748.853C139.081 806.683 112.212 867.54 60.642 894.689Z" fill="#252391"/>
<path d="M347.735 858.496C309.656 869.987 269.334 848.35 257.861 810.289L208.01 825.331C227.797 890.896 297.211 928.135 362.777 908.348C428.342 888.56 465.581 819.146 445.794 753.581L395.942 768.622C407.434 806.683 385.815 847.005 347.735 858.496Z" fill="#252391"/>
<path d="M291.046 670.601C252.91 682.055 212.588 660.455 201.115 622.338L151.301 637.435C171.033 703 240.466 740.146 306.031 720.415C371.596 700.571 408.854 631.157 389.123 565.685L339.197 580.671C350.781 618.806 329.069 659.035 291.046 670.601Z" fill="#252391"/>
<path d="M831.264 39.7988L707.943 137.428L755.347 294.474C833.151 286.327 909.516 284.122 982.798 288.85C1073.27 294.81 1156.81 310.674 1230.65 335.469C1250.16 342.083 1268.99 349.352 1287.08 357.181C1274.28 372.614 1262.38 388.254 1251.38 404.023C1232.09 431.565 1215.44 459.443 1202.21 487.657C1228.88 503.745 1258.08 517.851 1289.29 530.202C1307.24 537.153 1325.87 543.637 1345.15 549.373C1334.24 566.021 1322.68 582.446 1309.99 598.739C1262.29 660.25 1201.45 719.537 1129.38 774.526C1005.28 869.21 852.942 946.827 687.346 1000H428.063C498.533 989.126 570.196 972.954 641.611 951.397C647.889 949.529 653.943 947.437 660.128 945.456C579.335 884.73 519.936 800.087 490.302 702.011C460.761 604.251 463.414 501.222 496.691 406.229C490.619 407.985 484.677 409.536 478.735 411.404C293.908 467.115 127.699 553.782 0 656.372V581.281C56.0123 539.564 117.772 501.433 183.495 467.048L136.11 310.02L0 298.628V280.518L354.519 0L831.264 39.7988ZM1195.49 384.834C1021.92 332.722 797.556 332.61 569.544 386.927C525.896 480.389 517.843 585.528 547.72 684.596C577.802 784.111 643.032 867.54 731.654 921.203C951.276 840.316 1137.75 716.342 1253.58 577.046C1217.65 561.5 1184.48 543.637 1154.72 523.364L1133.01 508.603L1142.93 484.237C1156.47 450.848 1174.22 417.57 1195.49 384.834Z" fill="#252391"/>
</svg>
