<svg width="98" height="71" viewBox="0 0 98 71" fill="none" xmlns="http://www.w3.org/2000/svg">
<path d="M8.58022 21.9221H0L9.50781 34.2281L0 46.5342H8.58022C15.3826 46.5342 20.8863 41.0304 20.8863 34.2281C20.8863 27.4258 15.3826 21.9221 8.58022 21.9221Z" fill="white"/>
<path d="M74.3928 8.45654H45.6684V19.4794H74.3928V8.45654Z" fill="white"/>
<path d="M38.6342 8.45654L60.0306 16.9131L81.427 8.45654L60.0306 0L38.6342 8.45654Z" fill="white"/>
<path d="M47.7864 32.4966C44.4935 32.4966 41.8189 29.8221 41.8189 26.5291H44.3234C44.3234 28.4461 45.8848 29.9921 47.7864 29.9921C49.7034 29.9921 51.2494 28.4307 51.2494 26.5291H53.7539C53.7694 29.8066 51.0793 32.4966 47.7864 32.4966Z" fill="white"/>
<path d="M47.7864 41.9271C44.4935 41.9271 41.8189 39.2526 41.8189 35.9596H44.3234C44.3234 37.8766 45.8848 39.4226 47.7864 39.4226C49.7034 39.4226 51.2494 37.8612 51.2494 35.9596H53.7539C53.7694 39.2526 51.0793 41.9271 47.7864 41.9271Z" fill="white"/>
<path d="M32.9449 37.2119C29.652 37.2119 26.9774 34.5373 26.9774 31.2444H29.4819C29.4819 33.1614 31.0434 34.7074 32.9449 34.7074C34.862 34.7074 36.4079 33.1459 36.4079 31.2444H38.9124C38.9124 34.5373 36.2379 37.2119 32.9449 37.2119Z" fill="white"/>
<path d="M73.4343 44.3079C67.8687 44.3079 63.339 39.7782 63.339 34.2127C63.339 28.6471 67.8687 24.1174 73.4343 24.1174C78.9998 24.1174 83.5296 28.6471 83.5296 34.2127C83.5296 39.7782 78.9998 44.3079 73.4343 44.3079ZM73.4343 27.0238C69.4611 27.0238 66.23 30.2549 66.23 34.2281C66.23 38.2013 69.4611 41.4324 73.4343 41.4324C77.4075 41.4324 80.6386 38.2013 80.6386 34.2281C80.6386 30.2549 77.4075 27.0238 73.4343 27.0238Z" fill="white"/>
<path d="M62.8443 50.0281C58.7784 45.7457 56.5367 40.1183 56.5367 34.1972C56.5367 28.307 58.7629 22.7105 62.7979 18.4281L64.9005 20.407C61.3756 24.1483 59.4277 29.0491 59.4277 34.1972C59.4277 39.3762 61.3911 44.277 64.9468 48.0338L62.8443 50.0281Z" fill="white"/>
<path d="M92.2799 34.2281C93.2847 33.115 94.4288 32.0637 95.6965 31.0588C96.4231 30.4868 97.1961 29.9303 98 29.4046C97.2734 28.7862 96.5159 28.1988 95.6965 27.6268C92.6509 25.4624 89.0178 23.5763 84.9364 22.0457C77.5157 19.263 68.9046 17.7943 60.0306 17.7943C51.1566 17.7943 42.5455 19.263 35.1248 22.0457C27.8123 24.7821 21.9839 28.6626 18.2581 33.2541L17.4696 34.2436L18.2581 35.2175C21.9839 39.8091 27.8123 43.6895 35.1248 46.4259C42.5455 49.2087 51.1566 50.6774 60.0306 50.6774C68.9046 50.6774 77.5157 49.2087 84.9364 46.4259C89.0178 44.8954 92.6509 43.0093 95.6965 40.8449C96.5004 40.2729 97.2734 39.67 98 39.067C97.1961 38.5414 96.4231 37.9849 95.6965 37.4128C94.4288 36.3925 93.2847 35.3412 92.2799 34.2281ZM60.0306 47.7864C43.5659 47.7864 28.4307 42.4991 20.9326 34.2281C28.4307 25.9571 43.5659 20.6698 60.0306 20.6698C73.0169 20.6698 85.1683 23.9628 93.393 29.4046C91.9552 30.6105 90.672 31.9091 89.5898 33.2541L88.8014 34.2281L89.5898 35.2175C90.672 36.5625 91.9552 37.8457 93.393 39.067C85.1683 44.4935 73.0169 47.7864 60.0306 47.7864Z" fill="white"/>
<path d="M73.4343 29.1264C70.6206 29.1264 68.3325 31.4144 68.3325 34.2281C68.3325 34.2436 68.3325 34.2745 68.3325 34.2899C68.8273 34.0426 69.3684 33.888 69.9713 33.888C71.9192 33.888 73.5116 35.4649 73.5116 37.4283C73.5116 38.124 73.3106 38.7733 72.9705 39.3144C73.1251 39.3299 73.2952 39.3453 73.4498 39.3453C76.2634 39.3453 78.5515 37.0573 78.5515 34.2436C78.536 31.4144 76.248 29.1264 73.4343 29.1264Z" fill="white"/>
<path d="M8.58022 21.9221H0L9.50781 34.2281L0 46.5342H8.58022C15.3826 46.5342 20.8863 41.0304 20.8863 34.2281C20.8863 27.4258 15.3826 21.9221 8.58022 21.9221Z" fill="white"/>
<path d="M74.3928 8.45654H45.6684V19.4794H74.3928V8.45654Z" fill="white"/>
<path d="M38.6342 8.45654L60.0306 16.9131L81.427 8.45654L60.0306 0L38.6342 8.45654Z" fill="white"/>
<path d="M47.7864 32.4966C44.4935 32.4966 41.8189 29.8221 41.8189 26.5291H44.3234C44.3234 28.4461 45.8848 29.9921 47.7864 29.9921C49.7034 29.9921 51.2494 28.4307 51.2494 26.5291H53.7539C53.7694 29.8066 51.0793 32.4966 47.7864 32.4966Z" fill="white"/>
<path d="M47.7864 41.9271C44.4935 41.9271 41.8189 39.2526 41.8189 35.9596H44.3234C44.3234 37.8766 45.8848 39.4226 47.7864 39.4226C49.7034 39.4226 51.2494 37.8612 51.2494 35.9596H53.7539C53.7694 39.2526 51.0793 41.9271 47.7864 41.9271Z" fill="white"/>
<path d="M32.9449 37.2119C29.652 37.2119 26.9774 34.5373 26.9774 31.2444H29.4819C29.4819 33.1614 31.0434 34.7074 32.9449 34.7074C34.862 34.7074 36.4079 33.1459 36.4079 31.2444H38.9124C38.9124 34.5373 36.2379 37.2119 32.9449 37.2119Z" fill="white"/>
<path d="M73.4343 44.3079C67.8687 44.3079 63.339 39.7782 63.339 34.2127C63.339 28.6471 67.8687 24.1174 73.4343 24.1174C78.9998 24.1174 83.5296 28.6471 83.5296 34.2127C83.5296 39.7782 78.9998 44.3079 73.4343 44.3079ZM73.4343 27.0238C69.4611 27.0238 66.23 30.2549 66.23 34.2281C66.23 38.2013 69.4611 41.4324 73.4343 41.4324C77.4075 41.4324 80.6386 38.2013 80.6386 34.2281C80.6386 30.2549 77.4075 27.0238 73.4343 27.0238Z" fill="white"/>
<path d="M62.8443 50.0281C58.7784 45.7457 56.5367 40.1183 56.5367 34.1972C56.5367 28.307 58.7629 22.7105 62.7979 18.4281L64.9005 20.407C61.3756 24.1483 59.4277 29.0491 59.4277 34.1972C59.4277 39.3762 61.3911 44.277 64.9468 48.0338L62.8443 50.0281Z" fill="white"/>
<path d="M92.2799 34.2281C93.2847 33.115 94.4288 32.0637 95.6965 31.0588C96.4231 30.4868 97.1961 29.9303 98 29.4046C97.2734 28.7862 96.5159 28.1988 95.6965 27.6268C92.6509 25.4624 89.0178 23.5763 84.9364 22.0457C77.5157 19.263 68.9046 17.7943 60.0306 17.7943C51.1566 17.7943 42.5455 19.263 35.1248 22.0457C27.8123 24.7821 21.9839 28.6626 18.2581 33.2541L17.4696 34.2436L18.2581 35.2175C21.9839 39.8091 27.8123 43.6895 35.1248 46.4259C42.5455 49.2087 51.1566 50.6774 60.0306 50.6774C68.9046 50.6774 77.5157 49.2087 84.9364 46.4259C89.0178 44.8954 92.6509 43.0093 95.6965 40.8449C96.5004 40.2729 97.2734 39.67 98 39.067C97.1961 38.5414 96.4231 37.9849 95.6965 37.4128C94.4288 36.3925 93.2847 35.3412 92.2799 34.2281ZM60.0306 47.7864C43.5659 47.7864 28.4307 42.4991 20.9326 34.2281C28.4307 25.9571 43.5659 20.6698 60.0306 20.6698C73.0169 20.6698 85.1683 23.9628 93.393 29.4046C91.9552 30.6105 90.672 31.9091 89.5898 33.2541L88.8014 34.2281L89.5898 35.2175C90.672 36.5625 91.9552 37.8457 93.393 39.067C85.1683 44.4935 73.0169 47.7864 60.0306 47.7864Z" fill="white"/>
<path d="M73.4343 29.1264C70.6206 29.1264 68.3325 31.4144 68.3325 34.2281C68.3325 34.2436 68.3325 34.2745 68.3325 34.2899C68.8273 34.0426 69.3684 33.888 69.9713 33.888C71.9192 33.888 73.5116 35.4649 73.5116 37.4283C73.5116 38.124 73.3106 38.7733 72.9705 39.3144C73.1251 39.3299 73.2952 39.3453 73.4498 39.3453C76.2634 39.3453 78.5515 37.0573 78.5515 34.2436C78.536 31.4144 76.248 29.1264 73.4343 29.1264Z" fill="white"/>
<path d="M29.9921 70.3114C28.2915 70.3114 26.962 69.8321 26.0035 68.8891C25.045 67.946 24.5657 66.5856 24.5657 64.8077V58.129H27.3639V64.7613C27.3639 65.8899 27.5958 66.7093 28.0596 67.2194C28.5234 67.7296 29.1727 67.977 30.0076 67.977C30.8579 67.977 31.5072 67.7296 31.971 67.2194C32.4348 66.7093 32.6667 65.8899 32.6667 64.7613V58.129H35.4031V64.8231C35.4031 66.5856 34.9238 67.946 33.9653 68.9046C33.0068 69.8476 31.6772 70.3114 29.9921 70.3114Z" fill="white"/>
<path d="M39.1753 70.1104V60.8963H41.7261V63.4472L41.2469 62.6742C41.5715 62.0558 42.0508 61.592 42.6692 61.2519C43.2876 60.9273 43.9833 60.7572 44.7717 60.7572C45.4983 60.7572 46.1631 60.8963 46.7351 61.1901C47.3071 61.4838 47.7709 61.9322 48.0956 62.5196C48.4203 63.1226 48.5903 63.8801 48.5903 64.8231V70.095H45.9158V65.2406C45.9158 64.4985 45.7457 63.9574 45.421 63.6018C45.0964 63.2462 44.6326 63.0762 44.0451 63.0762C43.6277 63.0762 43.2412 63.1689 42.9011 63.3545C42.561 63.54 42.2982 63.8028 42.1126 64.1584C41.9271 64.514 41.8344 64.9777 41.8344 65.5652V70.1259H39.1753V70.1104Z" fill="white"/>
<path d="M53.522 59.6132C53.0273 59.6132 52.6099 59.474 52.3007 59.1803C51.9915 58.902 51.8369 58.5464 51.8369 58.1136C51.8369 57.6962 51.9915 57.3406 52.3007 57.0468C52.6099 56.7686 53.0118 56.614 53.522 56.614C54.0167 56.614 54.4187 56.7531 54.7279 57.0159C55.0371 57.2787 55.1917 57.6343 55.1917 58.0517C55.1917 58.5001 55.0371 58.8711 54.7279 59.1494C54.4187 59.474 54.0167 59.6132 53.522 59.6132ZM52.177 70.1104V60.8963H54.8516V70.1104H52.177Z" fill="white"/>
<path d="M64.4521 70.3114C63.5245 70.3114 62.6742 70.1568 61.8703 69.8631C61.0819 69.5539 60.3862 69.1364 59.8142 68.5644C59.2267 68.0079 58.7784 67.3431 58.4537 66.601C58.129 65.8435 57.959 65.0241 57.959 64.112C57.959 63.2153 58.129 62.3805 58.4537 61.623C58.7784 60.8654 59.2422 60.2161 59.8296 59.6596C60.4171 59.103 61.1128 58.6701 61.9012 58.3609C62.6897 58.0517 63.5555 57.9126 64.483 57.9126C65.5189 57.9126 66.4619 58.0981 67.3122 58.4537C68.1625 58.8093 68.8582 59.3349 69.4302 60.0306L67.6214 61.6848C67.2194 61.221 66.7711 60.8654 66.2609 60.6181C65.7508 60.3862 65.2097 60.2625 64.6067 60.2625C64.0502 60.2625 63.54 60.3553 63.0607 60.5408C62.5969 60.7263 62.195 60.9891 61.8394 61.3292C61.4838 61.6693 61.2365 62.0713 61.051 62.5506C60.8654 63.0143 60.7727 63.54 60.7727 64.112C60.7727 64.684 60.8654 65.2096 61.051 65.6734C61.2365 66.1372 61.4993 66.5392 61.8394 66.8948C62.1795 67.2503 62.5815 67.4977 63.0607 67.6987C63.5245 67.8842 64.0347 67.977 64.6067 67.977C65.1942 67.977 65.7508 67.8533 66.2609 67.6059C66.7711 67.3586 67.2194 67.003 67.6214 66.5392L69.4147 68.1779C68.8427 68.8736 68.1316 69.3993 67.2967 69.7703C66.4464 70.1259 65.5034 70.3114 64.4521 70.3114Z" fill="white"/>
<path d="M76.047 70.2496C75.073 70.2496 74.2073 70.0486 73.4498 69.6312C72.6922 69.2137 72.0893 68.6572 71.6564 67.946C71.2235 67.2349 71.0071 66.4155 71.0071 65.5034C71.0071 64.5758 71.2235 63.7564 71.6564 63.0453C72.0893 62.3341 72.6922 61.7776 73.4498 61.3601C74.2073 60.9582 75.073 60.7572 76.047 60.7572C77.021 60.7572 77.9022 60.9582 78.6597 61.3601C79.4173 61.7621 80.0202 62.3187 80.4531 63.0453C80.8859 63.7564 81.1024 64.5758 81.1024 65.5034C81.1024 66.431 80.8859 67.2503 80.4531 67.946C80.0202 68.6572 79.4173 69.2137 78.6597 69.6312C77.9022 70.0331 77.021 70.2496 76.047 70.2496ZM76.047 68.0543C76.5108 68.0543 76.9128 67.9615 77.2529 67.7605C77.6085 67.5595 77.8867 67.2658 78.0877 66.8793C78.3041 66.4928 78.3969 66.029 78.3969 65.5034C78.3969 64.9623 78.2887 64.514 78.0877 64.1275C77.8713 63.7564 77.593 63.4627 77.2529 63.2617C76.8973 63.0607 76.5108 62.968 76.0625 62.968C75.6141 62.968 75.2122 63.0607 74.8566 63.2617C74.501 63.4627 74.2227 63.7564 74.0063 64.1275C73.7899 64.4985 73.6971 64.9623 73.6971 65.5034C73.6971 66.029 73.8053 66.4928 74.0063 66.8793C74.2227 67.2658 74.501 67.5595 74.8566 67.7605C75.2122 67.9615 75.6141 68.0543 76.047 68.0543Z" fill="white"/>
</svg>
