<svg width="37" height="40" viewBox="0 0 37 40" fill="none" xmlns="http://www.w3.org/2000/svg">
<path d="M2.20059 3.31149C1.84177 4.03181 1.66534 4.92422 1.31247 6.70502L0.126982 12.6877C-0.0410295 13.5034 -0.0423308 14.3452 0.123158 15.1614C0.288647 15.9777 0.617444 16.7512 1.08942 17.4348C1.5614 18.1183 2.16662 18.6974 2.86805 19.1366C3.56947 19.5759 4.35233 19.866 5.16871 19.9893C5.98508 20.1126 6.81779 20.0664 7.61586 19.8535C8.41393 19.6407 9.16057 19.2657 9.81007 18.7515C10.4596 18.2373 10.9983 17.5947 11.3932 16.8631C11.7881 16.1314 12.0309 15.3262 12.1067 14.4965L12.2455 13.1159C12.1704 13.994 12.2775 14.8782 12.5601 15.7121C12.8428 16.546 13.2946 17.3112 13.8868 17.9589C14.4791 18.6066 15.1986 19.1224 15.9995 19.4735C16.8005 19.8246 17.6652 20.0032 18.5383 19.9979C19.4115 19.9925 20.274 19.8034 21.0707 19.4427C21.8674 19.0819 22.5807 18.5573 23.1651 17.9025C23.7496 17.2477 24.1923 16.477 24.4649 15.6397C24.7376 14.8024 24.8342 13.917 24.7486 13.0399L24.8933 14.4965C24.9691 15.3262 25.2119 16.1314 25.6068 16.8631C26.0017 17.5947 26.5404 18.2373 27.1899 18.7515C27.8394 19.2657 28.5861 19.6407 29.3841 19.8535C30.1822 20.0664 31.0149 20.1126 31.8313 19.9893C32.6477 19.866 33.4305 19.5759 34.132 19.1366C34.8334 18.6974 35.4386 18.1183 35.9106 17.4348C36.3826 16.7512 36.7114 15.9777 36.8768 15.1614C37.0423 14.3452 37.041 13.5034 36.873 12.6877L35.6875 6.70502C35.3347 4.92422 35.1582 4.03382 34.7994 3.31149C34.4255 2.55923 33.8991 1.89473 33.2543 1.36111C32.6095 0.827502 31.8607 0.436708 31.0566 0.214097C30.2835 2.23618e-07 29.3835 0 27.5834 0H9.41658C7.61654 0 6.71653 2.23618e-07 5.94339 0.214097C5.13925 0.436708 4.39049 0.827502 3.74569 1.36111C3.10089 1.89473 2.57446 2.55923 2.20059 3.31149ZM30.9278 23.0104C32.4767 23.0143 34.0003 22.6138 35.3505 21.8478V24.0108C35.3505 31.5562 35.3505 35.3299 33.0271 37.673C31.1577 39.5618 28.3724 39.928 23.456 40V33.0149C23.456 31.144 23.456 30.2096 23.0576 29.5133C22.7966 29.0571 22.4212 28.6782 21.9692 28.4148C21.2793 28.0126 20.3536 28.0126 18.5 28.0126C16.6464 28.0126 15.7207 28.0126 15.0308 28.4148C14.5788 28.6782 14.2034 29.0571 13.9424 29.5133C13.544 30.2096 13.544 31.144 13.544 33.0149V40C8.62758 39.928 5.84228 39.5598 3.97287 37.673C1.64948 35.3299 1.64948 31.5562 1.64948 24.0108V21.8478C3.00032 22.6142 4.52464 23.0147 6.07423 23.0104C8.36518 23.0118 10.5708 22.1333 12.2435 20.5533C13.9478 22.1386 16.1823 23.0161 18.5 23.0104C20.8177 23.0161 23.0522 22.1386 24.7565 20.5533C26.4292 22.1333 28.6368 23.0118 30.9278 23.0104Z" fill="#2C2A9B"/>
</svg>
