<svg width="40" height="40" viewBox="0 0 40 40" fill="none" xmlns="http://www.w3.org/2000/svg">
<path d="M9.18449 38.826C8.39977 38.042 8.0074 37.1 8.0074 36C8.0074 34.9 8.39977 33.9586 9.18449 33.176C9.96922 32.3933 10.9114 32.0013 12.0111 32C13.1108 31.9986 14.0537 32.3906 14.8397 33.176C15.6258 33.9613 16.0175 34.9026 16.0148 36C16.0121 37.0973 15.6204 38.0393 14.8397 38.826C14.059 39.6126 13.1161 40.004 12.0111 40C10.9061 39.996 9.96388 39.6046 9.18449 38.826ZM29.203 38.826C28.4183 38.042 28.0259 37.1 28.0259 36C28.0259 34.9 28.4183 33.9586 29.203 33.176C29.9877 32.3933 30.9299 32.0013 32.0296 32C33.1293 31.9986 34.0721 32.3906 34.8582 33.176C35.6443 33.9613 36.036 34.9026 36.0333 36C36.0306 37.0973 35.6389 38.0393 34.8582 38.826C34.0775 39.6126 33.1346 40.004 32.0296 40C30.9246 39.996 29.9824 39.6046 29.203 38.826ZM8.40777 4H37.9351C38.7024 4 39.2863 4.342 39.6867 5.026C40.087 5.71 40.1037 6.40133 39.7367 7.09999L32.6301 19.9C32.2631 20.5667 31.7714 21.0833 31.1548 21.45C30.5382 21.8167 29.8623 22 29.1269 22H14.2131L12.0111 26H34.0314C34.5986 26 35.0744 26.192 35.4588 26.576C35.8431 26.96 36.0346 27.4346 36.0333 28C36.032 28.5653 35.8398 29.0406 35.4568 29.426C35.0737 29.8113 34.5986 30.0026 34.0314 30H12.0111C10.5097 30 9.37533 29.342 8.60796 28.026C7.84058 26.71 7.80722 25.4013 8.50787 24.1L11.2104 19.2L4.00371 4H2.00186C1.43467 4 0.95956 3.808 0.576539 3.424C0.193519 3.04 0.00134147 2.56533 6.90293e-06 2C-0.00132766 1.43467 0.19085 0.96 0.576539 0.576C0.962229 0.192 1.43733 0 2.00186 0H5.25486C5.62187 0 5.97219 0.1 6.30583 0.3C6.63947 0.5 6.8897 0.783333 7.05653 1.15L8.40777 4Z" fill="#2C2A9B"/>
</svg>
