<svg width="40" height="38" viewBox="0 0 40 38" fill="none" xmlns="http://www.w3.org/2000/svg">
<path d="M32 0C34.1217 0 36.1566 0.842874 37.6569 2.3432C39.1571 3.84353 40 5.87841 40 8.00019V24.0006C40 26.1223 39.1571 28.1572 37.6569 29.6576C36.1566 31.1579 34.1217 32.0008 32 32.0008H22.552L13.028 37.7149C12.7412 37.887 12.4158 37.9845 12.0815 37.9983C11.7473 38.0121 11.415 37.9419 11.1149 37.7941C10.8149 37.6462 10.5567 37.4255 10.364 37.152C10.1713 36.8786 10.0503 36.5612 10.012 36.2289L10 36.0009V32.0008H8C5.94752 32.0008 3.97354 31.2119 2.48638 29.7973C0.999209 28.3826 0.112624 26.4505 0.0100002 24.4006L0 24.0006V8.00019C0 5.87841 0.842855 3.84353 2.34315 2.3432C3.84344 0.842874 5.87827 0 8 0H32ZM24 18.0004H12C11.4696 18.0004 10.9609 18.2111 10.5858 18.5862C10.2107 18.9613 10 19.47 10 20.0005C10 20.5309 10.2107 21.0396 10.5858 21.4147C10.9609 21.7898 11.4696 22.0005 12 22.0005H24C24.5304 22.0005 25.0391 21.7898 25.4142 21.4147C25.7893 21.0396 26 20.5309 26 20.0005C26 19.47 25.7893 18.9613 25.4142 18.5862C25.0391 18.2111 24.5304 18.0004 24 18.0004ZM28 10.0002H12C11.4696 10.0002 10.9609 10.211 10.5858 10.586C10.2107 10.9611 10 11.4698 10 12.0003C10 12.5307 10.2107 13.0394 10.5858 13.4145C10.9609 13.7896 11.4696 14.0003 12 14.0003H28C28.5304 14.0003 29.0391 13.7896 29.4142 13.4145C29.7893 13.0394 30 12.5307 30 12.0003C30 11.4698 29.7893 10.9611 29.4142 10.586C29.0391 10.211 28.5304 10.0002 28 10.0002Z" fill="#2C2A9B"/>
</svg>
