<svg width="53" height="50" viewBox="0 0 53 50" fill="none" xmlns="http://www.w3.org/2000/svg">
<path d="M26.183 0C26.9224 2.55603e-05 27.6495 0.180765 28.3012 0.523438L28.5756 0.679688L28.8402 0.855469C29.3524 1.22386 29.7825 1.69575 30.1029 2.23926L30.2543 2.51562L30.2562 2.52344L35.8851 13.8604L48.4808 15.6924H48.4779C49.209 15.796 49.9028 16.0747 50.4984 16.5059L50.7474 16.7012L50.9847 16.9131C51.441 17.3527 51.7991 17.8837 52.0375 18.4707L52.1469 18.7705L52.2357 19.0752C52.4152 19.7925 52.4166 20.5448 52.2377 21.2656C52.0332 22.0886 51.599 22.836 50.9896 23.4258L50.9916 23.4277L41.891 32.2422L44.0394 44.6934V44.6953C44.6823 48.433 40.7476 51.1973 37.4476 49.4756H37.4457L26.183 43.5859L14.9174 49.4756L14.9154 49.4736C11.6068 51.2043 7.68826 48.4209 8.3285 44.6934V44.6904L10.475 32.2422L1.37439 23.4258L1.37146 23.4229C0.764254 22.8324 0.335133 22.083 0.132207 21.2607C-0.0706471 20.4385 -0.0398217 19.5756 0.223027 18.7705L0.332402 18.4727C0.610073 17.7887 1.05226 17.1822 1.62049 16.7061L1.86951 16.5107C2.38175 16.1392 2.96641 15.8799 3.58533 15.748L3.89686 15.6924L16.4779 13.8604L22.1117 2.52344L22.1137 2.51562C22.4914 1.76012 23.072 1.12394 23.7904 0.679688L24.0648 0.523438C24.7165 0.180568 25.4435 9.22294e-05 26.183 0Z" fill="#2C2A9B"/>
</svg>
